M48
;Layer_Color=9474304
;FILE_FORMAT=2:5
INCH,LZ
;TYPE=PLATED
T1F00S00C0.02800
T2F00S00C0.03000
T3F00S00C0.03937
T4F00S00C0.04000
T5F00S00C0.05100
%
T01
X-01213Y-00341
X-0099
X-00767
X-00544
X-00321
X-00098
X00125
X-01436
X-01825Y-00046
X-02045Y-00718
X-02759Y-00869
X-03131Y-0068
X-03056Y-0058
X-03263Y-00057
X-03217Y00066
X-0292Y00155
X-03005Y00552
X-03135Y00537
X-03062Y00765
X-03038Y01003
X-03897Y0117
X-02659Y00778
X-01553Y00487
X-0133
X-01107
X-00884
X-00661
X-00438
X-00215
X-00008Y00358
T02
X-01115Y-001
Y0
X-00892
Y-001
X-00669
Y0
X-00446
Y-001
X-00223
Y0
X0
Y-001
X-01338
Y0
X-01561
Y-001
X-01641Y0016
Y0026
X-01418
Y0016
X-01195
Y0026
X-00972
Y0016
X-00749
Y0026
X-00526
Y0016
X-00303
Y0026
X-0008
Y0016
T03
X-01115Y-007
X-00892
X-00669
X-00446
X-00223
X0
Y-004
X-00223
X-00446
X-00669
X-00892
X-01115
X-01338
X-01561
Y-007
X-01338
X-01418Y0056
X-01641
Y0086
X-01418
X-01195
X-00972
X-00749
X-00526
X-00303
X-0008
Y0056
X-00303
X-00526
X-00749
X-00972
X-01195
T04
X-027845Y-002195
X-026845
X-025845
X-024845
X-028845
X-029845
X-030845
X-031845
X-032845
X-033845
X-034845
X-035845
X-036845
X-037845
X-038845
Y003805
X-037845
X-036845
X-035845
X-034845
X-033845
X-032845
X-031845
X-030845
X-029845
X-028845
X-03208Y0073
X-03308
X-027845Y003805
X-026845
X-025845
X-024845
T05
X-01113Y-01075
X-00975
X-00837
X-00699
X-00561
X-00423
X-00285
X-00147
X-00009
X-01251
X-01389
X-01527
X-01665
X-01803
X-01941
X-02079
X-02217
X-02355
X-02493
X-02631
X-02769
X-02907
X-03045
X-03183
X-03321
X-03459
X-03597
X-03735
Y01235
X-03597
X-03459
X-03321
X-03183
X-03045
X-02907
X-02769
X-02631
X-02493
X-02355
X-02217
X-02079
X-01941
X-01803
X-01665
X-01527
X-01389
X-01251
X-01113
X-00975
X-00837
X-00699
X-00561
X-00423
X-00285
X-00147
X-00009
M30
