%FSLAX25Y25*%
%MOIN*%
G70*
G01*
G75*
G04 Layer_Color=8421504*
%ADD10R,0.05709X0.06102*%
%ADD11R,0.03740X0.02756*%
%ADD12R,0.03740X0.09055*%
%ADD13R,0.26772X0.28740*%
%ADD14O,0.08858X0.02362*%
%ADD15O,0.02362X0.09055*%
%ADD16O,0.09055X0.02362*%
%ADD17R,0.03543X0.03740*%
%ADD18R,0.02756X0.03740*%
%ADD19R,0.03150X0.03937*%
%ADD20R,0.03740X0.03543*%
%ADD21R,0.03937X0.03150*%
%ADD22C,0.02500*%
%ADD23C,0.01000*%
%ADD24R,0.09600X0.09600*%
%ADD25C,0.09600*%
%ADD26C,0.07000*%
%ADD27R,0.07000X0.07000*%
%ADD28C,0.06000*%
%ADD29R,0.06000X0.06000*%
%ADD30C,0.07874*%
%ADD31C,0.05000*%
%ADD32C,0.04000*%
%ADD33C,0.09100*%
G04:AMPARAMS|DCode=34|XSize=111mil|YSize=111mil|CornerRadius=0mil|HoleSize=0mil|Usage=FLASHONLY|Rotation=0.000|XOffset=0mil|YOffset=0mil|HoleType=Round|Shape=Relief|Width=10mil|Gap=10mil|Entries=4|*
%AMTHD34*
7,0,0,0.11100,0.09100,0.01000,45*
%
%ADD34THD34*%
%ADD35C,0.08000*%
%ADD36C,0.07937*%
%ADD37C,0.06800*%
G04:AMPARAMS|DCode=38|XSize=99.37mil|YSize=99.37mil|CornerRadius=0mil|HoleSize=0mil|Usage=FLASHONLY|Rotation=0.000|XOffset=0mil|YOffset=0mil|HoleType=Round|Shape=Relief|Width=10mil|Gap=10mil|Entries=4|*
%AMTHD38*
7,0,0,0.09937,0.07937,0.01000,45*
%
%ADD38THD38*%
%ADD39C,0.10000*%
%ADD40C,0.00984*%
%ADD41C,0.02362*%
%ADD42C,0.00787*%
%ADD43C,0.00500*%
D10*
X-341700Y-70274D02*
D03*
Y-79526D02*
D03*
D11*
X-387600Y-79656D02*
D03*
Y-74144D02*
D03*
X-377300Y86044D02*
D03*
Y91556D02*
D03*
X-335900Y91556D02*
D03*
Y86044D02*
D03*
X-377500Y71144D02*
D03*
Y76656D02*
D03*
D12*
X-373276Y-79517D02*
D03*
X-355324D02*
D03*
D13*
X-364300Y-53926D02*
D03*
D14*
X-366149Y91500D02*
D03*
Y86500D02*
D03*
Y81500D02*
D03*
Y76500D02*
D03*
Y71500D02*
D03*
Y66500D02*
D03*
Y61500D02*
D03*
Y56500D02*
D03*
X-347251Y91500D02*
D03*
Y86500D02*
D03*
Y81500D02*
D03*
Y76500D02*
D03*
Y71500D02*
D03*
Y66500D02*
D03*
Y61500D02*
D03*
Y56500D02*
D03*
D15*
X-225000Y47087D02*
D03*
X-220000D02*
D03*
X-215000D02*
D03*
X-210000D02*
D03*
X-205000D02*
D03*
X-200000D02*
D03*
X-195000D02*
D03*
X-190000D02*
D03*
X-185000D02*
D03*
X-225000Y82913D02*
D03*
X-220000D02*
D03*
X-215000D02*
D03*
X-210000D02*
D03*
X-205000D02*
D03*
X-200000D02*
D03*
X-195000D02*
D03*
X-190000D02*
D03*
X-185000D02*
D03*
X-256800Y100913D02*
D03*
X-261800D02*
D03*
X-266800D02*
D03*
X-271800D02*
D03*
X-276800D02*
D03*
X-281800D02*
D03*
X-286800D02*
D03*
X-291800D02*
D03*
X-256800Y65087D02*
D03*
X-261800D02*
D03*
X-266800D02*
D03*
X-271800D02*
D03*
X-276800D02*
D03*
X-281800D02*
D03*
X-286800D02*
D03*
X-291800D02*
D03*
X-222500Y-53713D02*
D03*
X-217500D02*
D03*
X-212500D02*
D03*
X-207500D02*
D03*
X-202500D02*
D03*
X-197500D02*
D03*
X-192500D02*
D03*
X-187500D02*
D03*
X-182500D02*
D03*
X-222500Y-17887D02*
D03*
X-217500D02*
D03*
X-212500D02*
D03*
X-207500D02*
D03*
X-202500D02*
D03*
X-197500D02*
D03*
X-192500D02*
D03*
X-187500D02*
D03*
X-182500D02*
D03*
D16*
X-260187Y-78000D02*
D03*
Y-73000D02*
D03*
Y-68000D02*
D03*
Y-63000D02*
D03*
Y-58000D02*
D03*
Y-53000D02*
D03*
Y-48000D02*
D03*
Y-43000D02*
D03*
X-296013Y-78000D02*
D03*
Y-73000D02*
D03*
Y-68000D02*
D03*
Y-63000D02*
D03*
Y-58000D02*
D03*
Y-53000D02*
D03*
Y-48000D02*
D03*
Y-43000D02*
D03*
D17*
X-343548Y-1100D02*
D03*
X-349651D02*
D03*
D18*
X-286856Y55200D02*
D03*
X-281344D02*
D03*
X-292056Y23400D02*
D03*
X-286544D02*
D03*
X-281256Y-34400D02*
D03*
X-275744D02*
D03*
X-377144Y53700D02*
D03*
X-382656D02*
D03*
X-377144Y64200D02*
D03*
X-382656D02*
D03*
D19*
X2453Y97300D02*
D03*
X-3453D02*
D03*
X-20047D02*
D03*
X-25953D02*
D03*
X-42247D02*
D03*
X-48153D02*
D03*
X-86747D02*
D03*
X-92653D02*
D03*
X-109047Y97400D02*
D03*
X-114953D02*
D03*
X-10453Y-81300D02*
D03*
X-4547D02*
D03*
X-32453D02*
D03*
X-26547D02*
D03*
X-64547Y97500D02*
D03*
X-70453D02*
D03*
X-131447Y97300D02*
D03*
X-137353D02*
D03*
X-153647D02*
D03*
X-159553D02*
D03*
X-54953Y-81300D02*
D03*
X-49047D02*
D03*
X-76953D02*
D03*
X-71047D02*
D03*
X-99453D02*
D03*
X-93547D02*
D03*
X-121853D02*
D03*
X-115947D02*
D03*
X-144053D02*
D03*
X-138147D02*
D03*
X-166453D02*
D03*
X-160547D02*
D03*
D20*
X-11400Y96448D02*
D03*
Y102551D02*
D03*
X-33600Y96448D02*
D03*
Y102551D02*
D03*
X-56000Y96448D02*
D03*
Y102551D02*
D03*
X3500Y-80449D02*
D03*
Y-86551D02*
D03*
X-19000Y-80449D02*
D03*
Y-86551D02*
D03*
X-78300Y96448D02*
D03*
Y102551D02*
D03*
X-100600Y96448D02*
D03*
Y102551D02*
D03*
X-122900Y96448D02*
D03*
Y102551D02*
D03*
X-145200Y96448D02*
D03*
Y102551D02*
D03*
X-167500Y96448D02*
D03*
Y102551D02*
D03*
X-41100Y-80348D02*
D03*
Y-86451D02*
D03*
X-63500Y-80648D02*
D03*
Y-86751D02*
D03*
X-86000Y-80449D02*
D03*
Y-86551D02*
D03*
X-108000Y-80449D02*
D03*
Y-86551D02*
D03*
X-130500Y-80348D02*
D03*
Y-86451D02*
D03*
X-152500Y-80449D02*
D03*
Y-86551D02*
D03*
D21*
X-324100Y-58053D02*
D03*
Y-52147D02*
D03*
M02*
