%FSLAX25Y25*%
%MOIN*%
G70*
G01*
G75*
G04 Layer_Color=16711935*
%ADD10R,0.05709X0.06102*%
%ADD11R,0.03740X0.02756*%
%ADD12R,0.03740X0.09055*%
%ADD13R,0.26772X0.28740*%
%ADD14O,0.08858X0.02362*%
%ADD15O,0.02362X0.09055*%
%ADD16O,0.09055X0.02362*%
%ADD17R,0.03543X0.03740*%
%ADD18R,0.02756X0.03740*%
%ADD19R,0.03150X0.03937*%
%ADD20R,0.03740X0.03543*%
%ADD21R,0.03937X0.03150*%
%ADD22C,0.02500*%
%ADD23C,0.01000*%
%ADD24R,0.09600X0.09600*%
%ADD25C,0.09600*%
%ADD26C,0.07000*%
%ADD27R,0.07000X0.07000*%
%ADD28C,0.06000*%
%ADD29R,0.06000X0.06000*%
%ADD30C,0.07874*%
%ADD31C,0.05000*%
%ADD32C,0.04000*%
%ADD33C,0.09100*%
G04:AMPARAMS|DCode=34|XSize=111mil|YSize=111mil|CornerRadius=0mil|HoleSize=0mil|Usage=FLASHONLY|Rotation=0.000|XOffset=0mil|YOffset=0mil|HoleType=Round|Shape=Relief|Width=10mil|Gap=10mil|Entries=4|*
%AMTHD34*
7,0,0,0.11100,0.09100,0.01000,45*
%
%ADD34THD34*%
%ADD35C,0.08000*%
%ADD36C,0.07937*%
%ADD37C,0.06800*%
G04:AMPARAMS|DCode=38|XSize=99.37mil|YSize=99.37mil|CornerRadius=0mil|HoleSize=0mil|Usage=FLASHONLY|Rotation=0.000|XOffset=0mil|YOffset=0mil|HoleType=Round|Shape=Relief|Width=10mil|Gap=10mil|Entries=4|*
%AMTHD38*
7,0,0,0.09937,0.07937,0.01000,45*
%
%ADD38THD38*%
%ADD39C,0.10000*%
%ADD40C,0.00984*%
%ADD41C,0.02362*%
%ADD42C,0.00787*%
%ADD43C,0.00500*%
%ADD44R,0.06509X0.06902*%
%ADD45R,0.04540X0.03556*%
%ADD46R,0.04540X0.09855*%
%ADD47R,0.27572X0.29540*%
%ADD48O,0.09658X0.03162*%
%ADD49O,0.03162X0.09855*%
%ADD50O,0.09855X0.03162*%
%ADD51R,0.04343X0.04540*%
%ADD52R,0.03556X0.04540*%
%ADD53R,0.03950X0.04737*%
%ADD54R,0.04540X0.04343*%
%ADD55R,0.04737X0.03950*%
%ADD56R,0.10400X0.10400*%
%ADD57C,0.10400*%
%ADD58C,0.07800*%
%ADD59R,0.07800X0.07800*%
%ADD60R,0.06800X0.06800*%
%ADD61C,0.08674*%
%ADD62C,0.05800*%
%ADD63C,0.00050*%
%ADD64C,0.00394*%
D64*
X-359062Y90142D02*
G03*
X-359062Y90142I-1969J0D01*
G01*
X-183346Y76417D02*
G03*
X-183346Y76417I-1969J0D01*
G01*
X-255205Y94417D02*
G03*
X-255205Y94417I-1969J0D01*
G01*
X-264714Y-77626D02*
G03*
X-264714Y-77626I-1969J0D01*
G01*
X-180847Y-24383D02*
G03*
X-180847Y-24383I-1969J0D01*
G01*
X-338944Y-81002D02*
Y-68798D01*
X-344456Y-81002D02*
Y-68798D01*
X-338944D01*
X-344456Y-81002D02*
X-338944D01*
X-389273Y-80148D02*
X-385927D01*
X-389273Y-73652D02*
X-385927D01*
X-389273Y-80148D02*
Y-73652D01*
X-385927Y-80148D02*
Y-73652D01*
X-377587Y-71249D02*
X-351013D01*
X-377587Y-46761D02*
X-351013D01*
X-377587Y-71249D02*
Y-46761D01*
X-351013Y-71249D02*
Y-46761D01*
X-364574Y54315D02*
Y93685D01*
X-348826Y54315D02*
Y93685D01*
X-364574D02*
X-348826D01*
X-364574Y54315D02*
X-348826D01*
X-228228Y50039D02*
Y79961D01*
X-181772Y50039D02*
Y79961D01*
X-228228Y50039D02*
X-181772D01*
X-228228Y79961D02*
X-181772D01*
X-294969Y97961D02*
X-253631D01*
X-294969Y68039D02*
X-253631D01*
Y97961D01*
X-294969Y68039D02*
Y97961D01*
X-263139Y-81169D02*
Y-39831D01*
X-293061Y-81169D02*
Y-39831D01*
Y-81169D02*
X-263139D01*
X-293061Y-39831D02*
X-263139D01*
X-225728Y-50761D02*
Y-20839D01*
X-179272Y-50761D02*
Y-20839D01*
X-225728Y-50761D02*
X-179272D01*
X-225728Y-20839D02*
X-179272D01*
X-350045Y-2970D02*
X-343155D01*
X-350045Y770D02*
X-343155D01*
Y-2970D02*
Y770D01*
X-350045Y-2970D02*
Y770D01*
X-287348Y56873D02*
X-280852D01*
X-287348Y53527D02*
X-280852D01*
X-287348D02*
Y56873D01*
X-280852Y53527D02*
Y56873D01*
X-13270Y96055D02*
Y102945D01*
X-9530Y96055D02*
Y102945D01*
X-13270Y96055D02*
X-9530D01*
X-13270Y102945D02*
X-9530D01*
X-35470Y96055D02*
Y102945D01*
X-31730Y96055D02*
Y102945D01*
X-35470Y96055D02*
X-31730D01*
X-35470Y102945D02*
X-31730D01*
X-57870Y96055D02*
Y102945D01*
X-54130Y96055D02*
Y102945D01*
X-57870Y96055D02*
X-54130D01*
X-57870Y102945D02*
X-54130D01*
X5370Y-86945D02*
Y-80055D01*
X1630Y-86945D02*
Y-80055D01*
X5370D01*
X1630Y-86945D02*
X5370D01*
X-17130D02*
Y-80055D01*
X-20870Y-86945D02*
Y-80055D01*
X-17130D01*
X-20870Y-86945D02*
X-17130D01*
X-292548Y25073D02*
X-286052D01*
X-292548Y21727D02*
X-286052D01*
X-292548D02*
Y25073D01*
X-286052Y21727D02*
Y25073D01*
X-281748Y-32727D02*
X-275252D01*
X-281748Y-36073D02*
X-275252D01*
X-281748D02*
Y-32727D01*
X-275252Y-36073D02*
Y-32727D01*
X-80170Y96055D02*
Y102945D01*
X-76430Y96055D02*
Y102945D01*
X-80170Y96055D02*
X-76430D01*
X-80170Y102945D02*
X-76430D01*
X-102470Y96055D02*
Y102945D01*
X-98730Y96055D02*
Y102945D01*
X-102470Y96055D02*
X-98730D01*
X-102470Y102945D02*
X-98730D01*
X-124770Y96055D02*
Y102945D01*
X-121030Y96055D02*
Y102945D01*
X-124770Y96055D02*
X-121030D01*
X-124770Y102945D02*
X-121030D01*
X-147070Y96055D02*
Y102945D01*
X-143330Y96055D02*
Y102945D01*
X-147070Y96055D02*
X-143330D01*
X-147070Y102945D02*
X-143330D01*
X-169370Y96055D02*
Y102945D01*
X-165630Y96055D02*
Y102945D01*
X-169370Y96055D02*
X-165630D01*
X-169370Y102945D02*
X-165630D01*
X-39230Y-86845D02*
Y-79955D01*
X-42970Y-86845D02*
Y-79955D01*
X-39230D01*
X-42970Y-86845D02*
X-39230D01*
X-61630Y-87145D02*
Y-80255D01*
X-65370Y-87145D02*
Y-80255D01*
X-61630D01*
X-65370Y-87145D02*
X-61630D01*
X-84130Y-86945D02*
Y-80055D01*
X-87870Y-86945D02*
Y-80055D01*
X-84130D01*
X-87870Y-86945D02*
X-84130D01*
X-106130D02*
Y-80055D01*
X-109870Y-86945D02*
Y-80055D01*
X-106130D01*
X-109870Y-86945D02*
X-106130D01*
X-128630Y-86845D02*
Y-79955D01*
X-132370Y-86845D02*
Y-79955D01*
X-128630D01*
X-132370Y-86845D02*
X-128630D01*
X-150630Y-86945D02*
Y-80055D01*
X-154370Y-86945D02*
Y-80055D01*
X-150630D01*
X-154370Y-86945D02*
X-150630D01*
X-378973Y85552D02*
X-375627D01*
X-378973Y92048D02*
X-375627D01*
X-378973Y85552D02*
Y92048D01*
X-375627Y85552D02*
Y92048D01*
X-376652Y52027D02*
Y55373D01*
X-383148Y52027D02*
Y55373D01*
Y52027D02*
X-376652D01*
X-383148Y55373D02*
X-376652D01*
Y62527D02*
Y65873D01*
X-383148Y62527D02*
Y65873D01*
Y62527D02*
X-376652D01*
X-383148Y65873D02*
X-376652D01*
X-337573Y92048D02*
X-334227D01*
X-337573Y85552D02*
X-334227D01*
Y92048D01*
X-337573Y85552D02*
Y92048D01*
X-379173Y70652D02*
X-375827D01*
X-379173Y77148D02*
X-375827D01*
X-379173Y70652D02*
Y77148D01*
X-375827Y70652D02*
Y77148D01*
M02*
