%FSLAX25Y25*%
%MOIN*%
G70*
G01*
G75*
G04 Layer_Physical_Order=1*
G04 Layer_Color=255*
%ADD10R,0.05709X0.06102*%
%ADD11R,0.03740X0.02756*%
%ADD12R,0.03740X0.09055*%
%ADD13R,0.26772X0.28740*%
%ADD14O,0.08858X0.02362*%
%ADD15O,0.02362X0.09055*%
%ADD16O,0.09055X0.02362*%
%ADD17R,0.03543X0.03740*%
%ADD18R,0.02756X0.03740*%
%ADD19R,0.03150X0.03937*%
%ADD20R,0.03740X0.03543*%
%ADD21R,0.03937X0.03150*%
%ADD22C,0.02500*%
%ADD23C,0.01000*%
%ADD24R,0.09600X0.09600*%
%ADD25C,0.09600*%
%ADD26C,0.07000*%
%ADD27R,0.07000X0.07000*%
%ADD28C,0.06000*%
%ADD29R,0.06000X0.06000*%
%ADD30C,0.07874*%
%ADD31C,0.05000*%
D10*
X-341700Y-70274D02*
D03*
Y-79526D02*
D03*
D11*
X-387600Y-79656D02*
D03*
Y-74144D02*
D03*
X-377300Y86044D02*
D03*
Y91556D02*
D03*
X-335900Y91556D02*
D03*
Y86044D02*
D03*
X-377500Y71144D02*
D03*
Y76656D02*
D03*
D12*
X-373276Y-79517D02*
D03*
X-355324D02*
D03*
D13*
X-364300Y-53926D02*
D03*
D14*
X-366149Y91500D02*
D03*
Y86500D02*
D03*
Y81500D02*
D03*
Y76500D02*
D03*
Y71500D02*
D03*
Y66500D02*
D03*
Y61500D02*
D03*
Y56500D02*
D03*
X-347251Y91500D02*
D03*
Y86500D02*
D03*
Y81500D02*
D03*
Y76500D02*
D03*
Y71500D02*
D03*
Y66500D02*
D03*
Y61500D02*
D03*
Y56500D02*
D03*
D15*
X-225000Y47087D02*
D03*
X-220000D02*
D03*
X-215000D02*
D03*
X-210000D02*
D03*
X-205000D02*
D03*
X-200000D02*
D03*
X-195000D02*
D03*
X-190000D02*
D03*
X-185000D02*
D03*
X-225000Y82913D02*
D03*
X-220000D02*
D03*
X-215000D02*
D03*
X-210000D02*
D03*
X-205000D02*
D03*
X-200000D02*
D03*
X-195000D02*
D03*
X-190000D02*
D03*
X-185000D02*
D03*
X-256800Y100913D02*
D03*
X-261800D02*
D03*
X-266800D02*
D03*
X-271800D02*
D03*
X-276800D02*
D03*
X-281800D02*
D03*
X-286800D02*
D03*
X-291800D02*
D03*
X-256800Y65087D02*
D03*
X-261800D02*
D03*
X-266800D02*
D03*
X-271800D02*
D03*
X-276800D02*
D03*
X-281800D02*
D03*
X-286800D02*
D03*
X-291800D02*
D03*
X-222500Y-53713D02*
D03*
X-217500D02*
D03*
X-212500D02*
D03*
X-207500D02*
D03*
X-202500D02*
D03*
X-197500D02*
D03*
X-192500D02*
D03*
X-187500D02*
D03*
X-182500D02*
D03*
X-222500Y-17887D02*
D03*
X-217500D02*
D03*
X-212500D02*
D03*
X-207500D02*
D03*
X-202500D02*
D03*
X-197500D02*
D03*
X-192500D02*
D03*
X-187500D02*
D03*
X-182500D02*
D03*
D16*
X-260187Y-78000D02*
D03*
Y-73000D02*
D03*
Y-68000D02*
D03*
Y-63000D02*
D03*
Y-58000D02*
D03*
Y-53000D02*
D03*
Y-48000D02*
D03*
Y-43000D02*
D03*
X-296013Y-78000D02*
D03*
Y-73000D02*
D03*
Y-68000D02*
D03*
Y-63000D02*
D03*
Y-58000D02*
D03*
Y-53000D02*
D03*
Y-48000D02*
D03*
Y-43000D02*
D03*
D17*
X-343548Y-1100D02*
D03*
X-349651D02*
D03*
D18*
X-286856Y55200D02*
D03*
X-281344D02*
D03*
X-292056Y23400D02*
D03*
X-286544D02*
D03*
X-281256Y-34400D02*
D03*
X-275744D02*
D03*
X-377144Y53700D02*
D03*
X-382656D02*
D03*
X-377144Y64200D02*
D03*
X-382656D02*
D03*
D19*
X2453Y97300D02*
D03*
X-3453D02*
D03*
X-20047D02*
D03*
X-25953D02*
D03*
X-42247D02*
D03*
X-48153D02*
D03*
X-86747D02*
D03*
X-92653D02*
D03*
X-109047Y97400D02*
D03*
X-114953D02*
D03*
X-10453Y-81300D02*
D03*
X-4547D02*
D03*
X-32453D02*
D03*
X-26547D02*
D03*
X-64547Y97500D02*
D03*
X-70453D02*
D03*
X-131447Y97300D02*
D03*
X-137353D02*
D03*
X-153647D02*
D03*
X-159553D02*
D03*
X-54953Y-81300D02*
D03*
X-49047D02*
D03*
X-76953D02*
D03*
X-71047D02*
D03*
X-99453D02*
D03*
X-93547D02*
D03*
X-121853D02*
D03*
X-115947D02*
D03*
X-144053D02*
D03*
X-138147D02*
D03*
X-166453D02*
D03*
X-160547D02*
D03*
D20*
X-11400Y96448D02*
D03*
Y102551D02*
D03*
X-33600Y96448D02*
D03*
Y102551D02*
D03*
X-56000Y96448D02*
D03*
Y102551D02*
D03*
X3500Y-80449D02*
D03*
Y-86551D02*
D03*
X-19000Y-80449D02*
D03*
Y-86551D02*
D03*
X-78300Y96448D02*
D03*
Y102551D02*
D03*
X-100600Y96448D02*
D03*
Y102551D02*
D03*
X-122900Y96448D02*
D03*
Y102551D02*
D03*
X-145200Y96448D02*
D03*
Y102551D02*
D03*
X-167500Y96448D02*
D03*
Y102551D02*
D03*
X-41100Y-80348D02*
D03*
Y-86451D02*
D03*
X-63500Y-80648D02*
D03*
Y-86751D02*
D03*
X-86000Y-80449D02*
D03*
Y-86551D02*
D03*
X-108000Y-80449D02*
D03*
Y-86551D02*
D03*
X-130500Y-80348D02*
D03*
Y-86451D02*
D03*
X-152500Y-80449D02*
D03*
Y-86551D02*
D03*
D21*
X-324100Y-58053D02*
D03*
Y-52147D02*
D03*
D22*
X-389800Y71344D02*
Y117000D01*
X-355324Y-79517D02*
X-355314Y-79526D01*
X-341700D01*
X-364300Y-53926D02*
X-354826Y-63400D01*
X-343200D01*
X-341700Y-64900D01*
Y-70274D02*
Y-64900D01*
X-233800Y-95400D02*
X-221700Y-107500D01*
X-347800Y-95400D02*
X-233800D01*
X-355324Y-87876D02*
X-347800Y-95400D01*
X-355324Y-87876D02*
Y-79517D01*
X-296013Y-78000D02*
X-284800D01*
X-275900Y-86900D01*
X-264400Y-107500D02*
X-263100D01*
X-364300Y-102900D02*
X-359700Y-107500D01*
X-364300Y-102900D02*
Y-53926D01*
X-338174D01*
X-334047Y-58053D01*
X-324100D01*
X-383726Y-53926D02*
X-364300D01*
X-387600Y-57800D02*
X-383726Y-53926D01*
X-387600Y-74144D02*
Y-57800D01*
X-373584Y-79656D02*
X-373500Y-79740D01*
X-387600Y-79656D02*
X-373584D01*
X-373500Y-107500D02*
Y-79740D01*
X-324100Y-58053D02*
X-319153Y-63000D01*
X-296013D01*
X5649Y102551D02*
X11900Y96300D01*
Y26400D02*
Y96300D01*
X1500Y16000D02*
X11900Y26400D01*
X-11400Y102551D02*
X5649D01*
X-8000Y16000D02*
X1500D01*
X-152500Y-86551D02*
X-108000D01*
X-86000D01*
X-85800Y-86751D01*
X-63500D01*
X-63200Y-86451D01*
X-41100D01*
X-41000Y-86551D01*
X-19000D01*
X3500D01*
X4221D01*
X19700Y-71072D01*
X0Y0D02*
X6100D01*
X19700Y-13600D01*
Y-71072D02*
Y-13600D01*
X-167500Y102551D02*
X-145200D01*
X-122900D01*
X-100600D01*
X-78300D01*
X-56000D01*
X-33600D01*
X-11400D01*
X-281256Y-34400D02*
Y-24756D01*
X-278450Y-21950D01*
X-275744Y-34400D02*
X-270900D01*
X-258450Y-21950D01*
X-260187Y-43000D02*
X-258450Y-41263D01*
Y-21950D01*
Y-21150D01*
X-250800Y-13500D01*
X-226887D01*
X-222500Y-17887D01*
X-296013Y-63000D02*
X-283100D01*
X-275744Y-55644D01*
Y-34400D01*
X-230113Y77800D02*
X-225000Y82913D01*
X-271800Y71900D02*
X-265900Y77800D01*
X-271800Y65087D02*
Y71900D01*
X-265900Y77800D02*
X-230113D01*
X-168221Y102551D02*
X-167500D01*
X-174900Y95872D02*
X-168221Y102551D01*
X-174900Y72800D02*
Y95872D01*
X-256800Y65087D02*
X-182613D01*
X-174900Y72800D01*
X-281344Y40944D02*
Y55200D01*
Y40944D02*
X-278450Y38050D01*
X-286856Y55200D02*
Y65031D01*
X-286800Y65087D01*
X-256800Y55300D02*
Y65087D01*
Y55300D02*
X-251300Y49800D01*
X-242900D01*
X-235500Y42400D01*
X-278450Y-21950D02*
X-235500Y21000D01*
Y42400D01*
X-286544Y29956D02*
X-278450Y38050D01*
X-296013Y-48000D02*
X-286700D01*
X-281256Y-42556D01*
Y-34400D01*
X-286544Y23400D02*
Y29956D01*
X-300500Y55200D02*
X-286856D01*
X-293300Y110000D02*
X-174949D01*
X-167500Y102551D01*
X-382656Y53700D02*
Y64200D01*
X-389800Y71344D02*
X-382656Y64200D01*
X-335956Y91500D02*
X-335900Y91556D01*
X-328244D02*
X-319500Y100300D01*
X-335900Y91556D02*
X-328244D01*
X-347251Y91500D02*
X-335956D01*
X-340744Y86044D02*
X-335900D01*
X-347151Y86400D02*
X-341100D01*
X-340744Y86044D01*
X-303800Y100300D02*
X-303000D01*
X-319500D02*
X-303800D01*
X-303000D02*
X-293300Y110000D01*
X-291800Y96300D02*
Y100913D01*
Y96300D02*
X-277100Y81600D01*
X-269700D01*
X-265900Y77800D01*
X-335900Y86044D02*
X-289444D01*
X-281200Y77800D01*
X-265900D01*
D23*
X-361800Y51300D02*
X-358600Y54500D01*
X-374744Y51300D02*
X-361800D01*
X-377144Y53700D02*
X-374744Y51300D01*
X-353100Y-1100D02*
X-349651D01*
X-358450Y4250D02*
X-353100Y-1100D01*
X-358450Y4250D02*
Y38050D01*
X-308000Y-52900D02*
X-296113D01*
X-333450Y-27450D02*
X-308000Y-52900D01*
X-333450Y-27450D02*
Y-5350D01*
X-356200Y109400D02*
X-352700Y112900D01*
X-356200Y78500D02*
Y109400D01*
Y78500D02*
X-354200Y76500D01*
X-262100Y136300D02*
X-249300Y123500D01*
X-348800Y136300D02*
X-262100D01*
X-352700Y132400D02*
X-348800Y136300D01*
X-352700Y112900D02*
Y132400D01*
X-354200Y76500D02*
X-347251D01*
X-272900Y133300D02*
X-263100Y123500D01*
X-334800Y133300D02*
X-272900D01*
X-339000Y129100D02*
X-334800Y133300D01*
X-339000Y113500D02*
Y129100D01*
X-353500Y99000D02*
X-339000Y113500D01*
X-353500Y83000D02*
Y99000D01*
Y83000D02*
X-352000Y81500D01*
X-347251D01*
X-320800Y68400D02*
Y73000D01*
X-322700Y66500D02*
X-320800Y68400D01*
X-347251Y66500D02*
X-322700D01*
X-340600Y73000D02*
X-330800D01*
X-342100Y71500D02*
X-340600Y73000D01*
X-347251Y71500D02*
X-342100D01*
X-268700Y-83400D02*
X-209400D01*
X-204500Y-78500D01*
Y-71800D01*
X-324100Y-52147D02*
Y-48248D01*
X-343450Y-28898D02*
X-324100Y-48248D01*
X-343450Y-28898D02*
Y-1198D01*
X-343548Y-1100D02*
X-343450Y-1198D01*
X-306100Y65000D02*
X-291887D01*
X-313500Y57600D02*
X-306100Y65000D01*
X-313500Y53700D02*
Y57600D01*
X-328450Y38050D02*
Y48378D01*
X-304400Y72400D02*
X-285800D01*
X-309800Y67000D02*
X-304400Y72400D01*
X-309828Y67000D02*
X-309800D01*
X-328450Y48378D02*
X-309828Y67000D01*
X-197300Y-35400D02*
X-177000D01*
X-212500Y-50600D02*
X-197300Y-35400D01*
X-212500Y-53713D02*
Y-50600D01*
X-204100Y-29400D02*
X-196300D01*
X-220386Y-45686D02*
X-204100Y-29400D01*
X-227286Y-45686D02*
X-220386D01*
X-202000Y-31400D02*
X-194500D01*
X-218286Y-47686D02*
X-202000Y-31400D01*
X-224886Y-47686D02*
X-218286D01*
X-199500Y-33400D02*
X-178200D01*
X-217500Y-51400D02*
X-199500Y-33400D01*
X-217500Y-53713D02*
Y-51400D01*
X-194800Y-37400D02*
X-176172D01*
X-207500Y-50100D02*
X-194800Y-37400D01*
X-207500Y-53713D02*
Y-50100D01*
X-192200Y-39400D02*
X-175343D01*
X-202500Y-49700D02*
X-192200Y-39400D01*
X-202500Y-53713D02*
Y-49700D01*
X-190100Y-41400D02*
X-174515D01*
X-197500Y-48800D02*
X-190100Y-41400D01*
X-197500Y-53713D02*
Y-48800D01*
X-188300Y-43400D02*
X-173686D01*
X-192500Y-47600D02*
X-188300Y-43400D01*
X-192500Y-53713D02*
Y-47600D01*
X-202500Y-20700D02*
Y-17887D01*
X-223300Y-41500D02*
X-202500Y-20700D01*
X-232500Y-41500D02*
X-223300D01*
X-255200Y-78000D02*
X-224886Y-47686D01*
X-260187Y-78000D02*
X-255200D01*
X-254600Y-73000D02*
X-227286Y-45686D01*
X-260187Y-73000D02*
X-254600D01*
X-229719Y-43619D02*
X-221876D01*
X-254100Y-68000D02*
X-229719Y-43619D01*
X-260187Y-68000D02*
X-254100D01*
X-254000Y-63000D02*
X-232500Y-41500D01*
X-260187Y-63000D02*
X-254000D01*
X-234500Y-38100D02*
X-224600D01*
X-254400Y-58000D02*
X-234500Y-38100D01*
X-260187Y-58000D02*
X-254400D01*
X-236900Y-35600D02*
X-227300D01*
X-254300Y-53000D02*
X-236900Y-35600D01*
X-260187Y-53000D02*
X-254300D01*
X-238700Y-32600D02*
X-228700D01*
X-254100Y-48000D02*
X-238700Y-32600D01*
X-260187Y-48000D02*
X-254100D01*
X-224600Y-38100D02*
X-207500Y-21000D01*
Y-17887D01*
X-227300Y-35600D02*
X-212500Y-20800D01*
Y-17887D01*
X-228700Y-32600D02*
X-217500Y-21400D01*
Y-17887D01*
X-221876Y-43619D02*
X-205657Y-27400D01*
X-199700D01*
X-196300Y-29400D02*
X-192500Y-25600D01*
X-197500Y-17887D02*
X-197400Y-17987D01*
Y-25100D02*
Y-17987D01*
X-199700Y-27400D02*
X-197400Y-25100D01*
X-192500Y-25600D02*
Y-17887D01*
X-187500Y-24400D02*
Y-17887D01*
X-194500Y-31400D02*
X-187500Y-24400D01*
X-186000Y-45400D02*
X-172858D01*
X-187500Y-46900D02*
X-186000Y-45400D01*
X-187500Y-53713D02*
Y-46900D01*
X-156100Y-11300D02*
Y-10000D01*
X-178200Y-33400D02*
X-156100Y-11300D01*
X-172029Y-47400D02*
X-152830Y-28200D01*
X-181500Y-47400D02*
X-172029D01*
X-182500Y-48400D02*
X-181500Y-47400D01*
X-172858Y-45400D02*
X-153658Y-26200D01*
X-173686Y-43400D02*
X-154486Y-24200D01*
X-174515Y-41400D02*
X-155315Y-22200D01*
X-175343Y-39400D02*
X-156143Y-20200D01*
X-176172Y-37400D02*
X-155272Y-16500D01*
X-177000Y-35400D02*
X-156100Y-14500D01*
X-153658Y-26200D02*
X-38500D01*
X-154486Y-24200D02*
X-58800D01*
X-155315Y-22200D02*
X-79100D01*
X-156143Y-20200D02*
X-99400D01*
X-155272Y-16500D02*
X-118000D01*
X-156100Y-14500D02*
X-138300D01*
X-182500Y-53713D02*
Y-48400D01*
X-138300Y-14500D02*
X-133800Y-10000D01*
X-118000Y-16500D02*
X-111500Y-10000D01*
X-79100Y-22200D02*
X-66900Y-10000D01*
X-99400Y-20200D02*
X-89200Y-10000D01*
X-58800Y-24200D02*
X-44600Y-10000D01*
X-38500Y-26200D02*
X-22300Y-10000D01*
X-155300Y48700D02*
Y82600D01*
X-153847Y84053D01*
Y97300D01*
X-133000Y48700D02*
Y82600D01*
X-131547Y84053D01*
Y97300D01*
X-110700Y48700D02*
Y82600D01*
X-109247Y84053D01*
Y97300D01*
X-88400Y48700D02*
Y82600D01*
X-86947Y84053D01*
Y97300D01*
X-66100Y48700D02*
Y82600D01*
X-64647Y84053D01*
Y97300D01*
X-43800Y48700D02*
Y82600D01*
X-42347Y84053D01*
Y97300D01*
X-20047Y84053D02*
Y97300D01*
X-21500Y82600D02*
X-20047Y84053D01*
X-21500Y48700D02*
Y82600D01*
X-800Y35800D02*
X2453Y39053D01*
Y97300D01*
X-153700Y97247D02*
X-153647Y97300D01*
X-210000Y42700D02*
X-200300Y33000D01*
X-205000Y42200D02*
X-197800Y35000D01*
X-200000Y41900D02*
X-195100Y37000D01*
X-195000Y41700D02*
X-192300Y39000D01*
X-190000Y43100D02*
X-187900Y41000D01*
X-45300D01*
X-192300Y39000D02*
X-65600D01*
X-195100Y37000D02*
X-85900D01*
X-197800Y35000D02*
X-106200D01*
X-200300Y33000D02*
X-126500D01*
X-119500Y26000D01*
X-106200Y35000D02*
X-97200Y26000D01*
X-85900Y37000D02*
X-74900Y26000D01*
X-65600Y39000D02*
X-52600Y26000D01*
X-45300Y41000D02*
X-30300Y26000D01*
X-25000Y43000D02*
X-8000Y26000D01*
X-180913Y43000D02*
X-25000D01*
X-185000Y47087D02*
X-180913Y43000D01*
X-210000Y42700D02*
Y47087D01*
X-200000Y41900D02*
Y47087D01*
X-205000Y42200D02*
Y47087D01*
X-204500Y26000D02*
X-164100D01*
X-220000Y41500D02*
X-204500Y26000D01*
X-220000Y41500D02*
Y47087D01*
X-190000Y43100D02*
Y47087D01*
X-195000Y41700D02*
Y47087D01*
X-203100Y31000D02*
X-146800D01*
X-215000Y42900D02*
X-203100Y31000D01*
X-215000Y42900D02*
Y47087D01*
X-146800Y31000D02*
X-141800Y26000D01*
X-167500Y96448D02*
X-166648Y97300D01*
X-159553D01*
X-145200Y96448D02*
X-144348Y97300D01*
X-137353D01*
X-122900Y96448D02*
X-121948Y97400D01*
X-114953D01*
X-100600Y96448D02*
X-99748Y97300D01*
X-92653D01*
X-78300Y96448D02*
X-77248Y97500D01*
X-70453D01*
X-56000Y96448D02*
X-55148Y97300D01*
X-48153D01*
X-33600Y96448D02*
X-32748Y97300D01*
X-25953D01*
X-11400Y96448D02*
X-10548Y97300D01*
X-3453D01*
X-152830Y-28200D02*
X-18200D01*
X0Y-10000D01*
X-143600Y-42800D02*
Y-34100D01*
X-166453Y-65653D02*
X-143600Y-42800D01*
X-166453Y-81300D02*
Y-65653D01*
X-144153Y-81300D02*
Y-65653D01*
X-121300Y-42800D01*
Y-34100D01*
X-121853Y-81300D02*
Y-65653D01*
X-99000Y-42800D01*
Y-34100D01*
X-99553Y-81300D02*
Y-65653D01*
X-76700Y-42800D01*
Y-34100D01*
X-77253Y-81300D02*
Y-65653D01*
X-54400Y-42800D01*
Y-34100D01*
X-54953Y-81300D02*
Y-65653D01*
X-32100Y-42800D01*
Y-34100D01*
X-32653Y-81300D02*
Y-65653D01*
X-9800Y-42800D01*
Y-34100D01*
X-10353Y-81300D02*
Y-65653D01*
X12500Y-42800D01*
Y-34100D01*
X-159696Y-80449D02*
X-152500D01*
X-160547Y-81300D02*
X-159696Y-80449D01*
X-137696Y-80348D02*
X-130500D01*
X-115196Y-80449D02*
X-108000D01*
X-93196D02*
X-86000D01*
X-70696Y-80648D02*
X-63500D01*
X-48296Y-80348D02*
X-41100D01*
X-26196Y-80449D02*
X-19000D01*
X-3696D02*
X3500D01*
X-190300Y83213D02*
X-190000Y82913D01*
X-261800Y96300D02*
Y100913D01*
X-190300Y83213D02*
Y94800D01*
X-266800Y96600D02*
Y100913D01*
X-261800Y96300D02*
X-260386Y94886D01*
X-266800Y96600D02*
X-263086Y92886D01*
X-195000Y82913D02*
Y93600D01*
X-271800Y97300D02*
Y100913D01*
Y97300D02*
X-265200Y90700D01*
X-247413D01*
X-205000Y82913D02*
Y91113D01*
X-200000Y82913D02*
Y91800D01*
X-210000Y82913D02*
Y89800D01*
X-215000Y82913D02*
Y88313D01*
X-256800Y100913D02*
X-245685D01*
X-220000Y82913D02*
Y88600D01*
X-244928Y84700D02*
X-239028Y90600D01*
X-222000D01*
X-220000Y88600D01*
X-243999Y102600D02*
X-198100D01*
X-243170Y100600D02*
X-202000D01*
X-242342Y98600D02*
X-206800D01*
X-241513Y96600D02*
X-210487D01*
X-240685Y94600D02*
X-214800D01*
X-239857Y92600D02*
X-219287D01*
X-245757Y86700D02*
X-239857Y92600D01*
X-219287D02*
X-215000Y88313D01*
X-246585Y88700D02*
X-240685Y94600D01*
X-214800D02*
X-210000Y89800D01*
X-247413Y90700D02*
X-241513Y96600D01*
X-210487D02*
X-205000Y91113D01*
X-248056Y92886D02*
X-242342Y98600D01*
X-206800D02*
X-200000Y91800D01*
X-248884Y94886D02*
X-243170Y100600D01*
X-202000D02*
X-195000Y93600D01*
X-245685Y100913D02*
X-243999Y102600D01*
X-198100D02*
X-190300Y94800D01*
X-260386Y94886D02*
X-248884D01*
X-263086Y92886D02*
X-248056D01*
X-261800Y65087D02*
Y70500D01*
X-259100Y73200D01*
X-188700D01*
X-185000Y76900D01*
Y82913D01*
X-328450Y-350D02*
Y38050D01*
X-296113Y-52900D02*
X-296013Y-53000D01*
X-298450Y38050D02*
X-292056Y31656D01*
X-333450Y-5350D02*
X-328450Y-350D01*
X-182500Y-17887D02*
Y-4600D01*
X-279100Y-73000D02*
X-268700Y-83400D01*
X-296013Y-73000D02*
X-279100D01*
X-292056Y23400D02*
Y31656D01*
X-266800Y55100D02*
Y65087D01*
X-273450Y48450D02*
X-266800Y55100D01*
X-291887Y65000D02*
X-291800Y65087D01*
X-305600Y-58000D02*
X-296013D01*
X-313100Y-68000D02*
X-296013D01*
X-273450Y17550D02*
Y48450D01*
X-318450Y18950D02*
Y38050D01*
Y18950D02*
X-309200Y9700D01*
X-281300D01*
X-273450Y17550D01*
X-292056Y15556D02*
Y23400D01*
Y15556D02*
X-292000Y15500D01*
X-377144Y71500D02*
X-366149D01*
X-377500Y71144D02*
X-377144Y71500D01*
X-377344Y76500D02*
X-366149D01*
X-377500Y76656D02*
X-377344Y76500D01*
X-372756Y81500D02*
X-366149D01*
X-377300Y86044D02*
X-372756Y81500D01*
X-377244Y91500D02*
X-366149D01*
X-377300Y91556D02*
X-377244Y91500D01*
X-248450Y18650D02*
Y38050D01*
X-273200Y-6100D02*
X-248450Y18650D01*
X-258450Y19950D02*
Y38050D01*
X-272200Y6200D02*
X-258450Y19950D01*
X-321700Y6600D02*
X-321300Y6200D01*
X-272200D01*
X-326300Y-6100D02*
X-273200D01*
X-366149Y86500D02*
X-360800D01*
X-358600Y54500D02*
Y84300D01*
X-360800Y86500D02*
X-358600Y84300D01*
X-370100Y66500D02*
X-366149D01*
X-372600Y64000D02*
X-370100Y66500D01*
X-376944Y64000D02*
X-372600D01*
X-377144Y64200D02*
X-376944Y64000D01*
X-281800Y65087D02*
Y68400D01*
X-285800Y72400D02*
X-281800Y68400D01*
X-276800Y65087D02*
Y68100D01*
X-286800Y97500D02*
Y100913D01*
Y97500D02*
X-274000Y84700D01*
X-244928D01*
X-281800Y97100D02*
Y100913D01*
Y97100D02*
X-271400Y86700D01*
X-245757D01*
X-276800Y97000D02*
Y100913D01*
Y97000D02*
X-268500Y88700D01*
X-246585D01*
X-306200Y76600D02*
X-285300D01*
X-276800Y68100D01*
D24*
X-900Y-107500D02*
D03*
Y123500D02*
D03*
D25*
X-14700Y-107500D02*
D03*
X-28500D02*
D03*
X-42300D02*
D03*
X-56100D02*
D03*
X-69900D02*
D03*
X-83700D02*
D03*
X-97500D02*
D03*
X-111300D02*
D03*
X-125100D02*
D03*
X-138900D02*
D03*
X-152700D02*
D03*
X-166500D02*
D03*
X-180300D02*
D03*
X-194100D02*
D03*
X-207900D02*
D03*
X-221700D02*
D03*
X-235500D02*
D03*
X-249300D02*
D03*
X-263100D02*
D03*
X-276900D02*
D03*
X-290700D02*
D03*
X-304500D02*
D03*
X-318300D02*
D03*
X-332100D02*
D03*
X-345900D02*
D03*
X-359700D02*
D03*
X-373500D02*
D03*
X-14700Y123500D02*
D03*
X-28500D02*
D03*
X-42300D02*
D03*
X-56100D02*
D03*
X-69900D02*
D03*
X-83700D02*
D03*
X-97500D02*
D03*
X-111300D02*
D03*
X-125100D02*
D03*
X-138900D02*
D03*
X-152700D02*
D03*
X-166500D02*
D03*
X-180300D02*
D03*
X-194100D02*
D03*
X-207900D02*
D03*
X-221700D02*
D03*
X-235500D02*
D03*
X-249300D02*
D03*
X-263100D02*
D03*
X-276900D02*
D03*
X-290700D02*
D03*
X-304500D02*
D03*
X-318300D02*
D03*
X-332100D02*
D03*
X-345900D02*
D03*
X-359700D02*
D03*
X-373500D02*
D03*
D26*
X-320800Y73000D02*
D03*
X-388450Y38050D02*
D03*
X-378450D02*
D03*
X-368450D02*
D03*
X-358450D02*
D03*
X-348450D02*
D03*
X-338450D02*
D03*
X-328450D02*
D03*
X-298450D02*
D03*
X-308450D02*
D03*
X-318450D02*
D03*
X-258450D02*
D03*
X-268450D02*
D03*
X-278450D02*
D03*
X-288450D02*
D03*
X-388450Y-21950D02*
D03*
X-378450D02*
D03*
X-368450D02*
D03*
X-358450D02*
D03*
X-348450D02*
D03*
X-338450D02*
D03*
X-328450D02*
D03*
X-298450D02*
D03*
X-308450D02*
D03*
X-318450D02*
D03*
X-258450D02*
D03*
X-268450D02*
D03*
X-278450D02*
D03*
X-288450D02*
D03*
D27*
X-330800Y73000D02*
D03*
X-248450Y38050D02*
D03*
Y-21950D02*
D03*
D28*
X-22300Y-10000D02*
D03*
X-8000Y26000D02*
D03*
X-30300D02*
D03*
X-156100Y-10000D02*
D03*
X-133800D02*
D03*
X-111500D02*
D03*
X-89200D02*
D03*
X-66900D02*
D03*
X-44600D02*
D03*
X0D02*
D03*
X-164100Y26000D02*
D03*
X-141800D02*
D03*
X-119500D02*
D03*
X-97200D02*
D03*
X-74900D02*
D03*
X-52600D02*
D03*
D29*
X-22300Y0D02*
D03*
X-8000Y16000D02*
D03*
X-30300D02*
D03*
X-156100Y0D02*
D03*
X-133800D02*
D03*
X-111500D02*
D03*
X-89200D02*
D03*
X-66900D02*
D03*
X-44600D02*
D03*
X0D02*
D03*
X-164100Y16000D02*
D03*
X-141800D02*
D03*
X-119500D02*
D03*
X-97200D02*
D03*
X-74900D02*
D03*
X-52600D02*
D03*
D30*
X-22300Y-40000D02*
D03*
Y-70000D02*
D03*
X-8000Y56000D02*
D03*
Y86000D02*
D03*
X-30300Y56000D02*
D03*
Y86000D02*
D03*
X-156100Y-40000D02*
D03*
Y-70000D02*
D03*
X-133800Y-40000D02*
D03*
Y-70000D02*
D03*
X-111500Y-40000D02*
D03*
Y-70000D02*
D03*
X-89200Y-40000D02*
D03*
Y-70000D02*
D03*
X-66900Y-40000D02*
D03*
Y-70000D02*
D03*
X-44600Y-40000D02*
D03*
Y-70000D02*
D03*
X0Y-40000D02*
D03*
Y-70000D02*
D03*
X-164100Y56000D02*
D03*
Y86000D02*
D03*
X-141800Y56000D02*
D03*
Y86000D02*
D03*
X-119500Y56000D02*
D03*
Y86000D02*
D03*
X-97200Y56000D02*
D03*
Y86000D02*
D03*
X-74900Y56000D02*
D03*
Y86000D02*
D03*
X-52600Y56000D02*
D03*
Y86000D02*
D03*
D31*
X-275900Y-86900D02*
D03*
X-800Y35800D02*
D03*
X-21500Y48700D02*
D03*
X-43800D02*
D03*
X-66100D02*
D03*
X-88400D02*
D03*
X-110700D02*
D03*
X-133000D02*
D03*
X-155300D02*
D03*
X-143600Y-34100D02*
D03*
X-121300D02*
D03*
X-99000D02*
D03*
X-76700D02*
D03*
X-54400D02*
D03*
X-32100D02*
D03*
X-9800D02*
D03*
X12500D02*
D03*
X-265900Y77800D02*
D03*
X-306200Y76500D02*
D03*
X-305600Y-58000D02*
D03*
X-313100Y-68000D02*
D03*
X-204500Y-71800D02*
D03*
X-182500Y-4600D02*
D03*
X-313500Y53700D02*
D03*
X-292000Y15500D02*
D03*
X-300500Y55200D02*
D03*
X-303800Y100300D02*
D03*
X-321700Y6600D02*
D03*
X-326300Y-5700D02*
D03*
X-389700Y117000D02*
D03*
M02*
