%FSLAX25Y25*%
%MOIN*%
G70*
G01*
G75*
G04 Layer_Color=16711935*
%ADD10R,0.05709X0.06102*%
%ADD11R,0.03740X0.02756*%
%ADD12R,0.03740X0.09055*%
%ADD13R,0.26772X0.28740*%
%ADD14O,0.08858X0.02362*%
%ADD15O,0.02362X0.09055*%
%ADD16O,0.09055X0.02362*%
%ADD17R,0.03543X0.03740*%
%ADD18R,0.02756X0.03740*%
%ADD19R,0.03150X0.03937*%
%ADD20R,0.03740X0.03543*%
%ADD21R,0.03937X0.03150*%
%ADD22C,0.02500*%
%ADD23C,0.01000*%
%ADD24R,0.09600X0.09600*%
%ADD25C,0.09600*%
%ADD26C,0.07000*%
%ADD27R,0.07000X0.07000*%
%ADD28C,0.06000*%
%ADD29R,0.06000X0.06000*%
%ADD30C,0.07874*%
%ADD31C,0.05000*%
%ADD32C,0.04000*%
%ADD33C,0.09100*%
G04:AMPARAMS|DCode=34|XSize=111mil|YSize=111mil|CornerRadius=0mil|HoleSize=0mil|Usage=FLASHONLY|Rotation=0.000|XOffset=0mil|YOffset=0mil|HoleType=Round|Shape=Relief|Width=10mil|Gap=10mil|Entries=4|*
%AMTHD34*
7,0,0,0.11100,0.09100,0.01000,45*
%
%ADD34THD34*%
%ADD35C,0.08000*%
%ADD36C,0.07937*%
%ADD37C,0.06800*%
G04:AMPARAMS|DCode=38|XSize=99.37mil|YSize=99.37mil|CornerRadius=0mil|HoleSize=0mil|Usage=FLASHONLY|Rotation=0.000|XOffset=0mil|YOffset=0mil|HoleType=Round|Shape=Relief|Width=10mil|Gap=10mil|Entries=4|*
%AMTHD38*
7,0,0,0.09937,0.07937,0.01000,45*
%
%ADD38THD38*%
%ADD39C,0.10000*%
%ADD40C,0.00984*%
%ADD41C,0.02362*%
%ADD42C,0.00787*%
%ADD43C,0.00500*%
%ADD44R,0.06509X0.06902*%
%ADD45R,0.04540X0.03556*%
%ADD46R,0.04540X0.09855*%
%ADD47R,0.27572X0.29540*%
%ADD48O,0.09658X0.03162*%
%ADD49O,0.03162X0.09855*%
%ADD50O,0.09855X0.03162*%
%ADD51R,0.04343X0.04540*%
%ADD52R,0.03556X0.04540*%
%ADD53R,0.03950X0.04737*%
%ADD54R,0.04540X0.04343*%
%ADD55R,0.04737X0.03950*%
%ADD56R,0.10400X0.10400*%
%ADD57C,0.10400*%
%ADD58C,0.07800*%
%ADD59R,0.07800X0.07800*%
%ADD60R,0.06800X0.06800*%
%ADD61C,0.08674*%
%ADD62C,0.05800*%
D37*
X-22300Y-10000D02*
D03*
X-8000Y26000D02*
D03*
X-30300D02*
D03*
X-156100Y-10000D02*
D03*
X-133800D02*
D03*
X-111500D02*
D03*
X-89200D02*
D03*
X-66900D02*
D03*
X-44600D02*
D03*
X0D02*
D03*
X-164100Y26000D02*
D03*
X-141800D02*
D03*
X-119500D02*
D03*
X-97200D02*
D03*
X-74900D02*
D03*
X-52600D02*
D03*
D56*
X-900Y-107500D02*
D03*
Y123500D02*
D03*
D57*
X-14700Y-107500D02*
D03*
X-28500D02*
D03*
X-42300D02*
D03*
X-56100D02*
D03*
X-69900D02*
D03*
X-83700D02*
D03*
X-97500D02*
D03*
X-111300D02*
D03*
X-125100D02*
D03*
X-138900D02*
D03*
X-152700D02*
D03*
X-166500D02*
D03*
X-180300D02*
D03*
X-194100D02*
D03*
X-207900D02*
D03*
X-221700D02*
D03*
X-235500D02*
D03*
X-249300D02*
D03*
X-263100D02*
D03*
X-276900D02*
D03*
X-290700D02*
D03*
X-304500D02*
D03*
X-318300D02*
D03*
X-332100D02*
D03*
X-345900D02*
D03*
X-359700D02*
D03*
X-373500D02*
D03*
X-14700Y123500D02*
D03*
X-28500D02*
D03*
X-42300D02*
D03*
X-56100D02*
D03*
X-69900D02*
D03*
X-83700D02*
D03*
X-97500D02*
D03*
X-111300D02*
D03*
X-125100D02*
D03*
X-138900D02*
D03*
X-152700D02*
D03*
X-166500D02*
D03*
X-180300D02*
D03*
X-194100D02*
D03*
X-207900D02*
D03*
X-221700D02*
D03*
X-235500D02*
D03*
X-249300D02*
D03*
X-263100D02*
D03*
X-276900D02*
D03*
X-290700D02*
D03*
X-304500D02*
D03*
X-318300D02*
D03*
X-332100D02*
D03*
X-345900D02*
D03*
X-359700D02*
D03*
X-373500D02*
D03*
D58*
X-320800Y73000D02*
D03*
X-388450Y38050D02*
D03*
X-378450D02*
D03*
X-368450D02*
D03*
X-358450D02*
D03*
X-348450D02*
D03*
X-338450D02*
D03*
X-328450D02*
D03*
X-298450D02*
D03*
X-308450D02*
D03*
X-318450D02*
D03*
X-258450D02*
D03*
X-268450D02*
D03*
X-278450D02*
D03*
X-288450D02*
D03*
X-388450Y-21950D02*
D03*
X-378450D02*
D03*
X-368450D02*
D03*
X-358450D02*
D03*
X-348450D02*
D03*
X-338450D02*
D03*
X-328450D02*
D03*
X-298450D02*
D03*
X-308450D02*
D03*
X-318450D02*
D03*
X-258450D02*
D03*
X-268450D02*
D03*
X-278450D02*
D03*
X-288450D02*
D03*
D59*
X-330800Y73000D02*
D03*
X-248450Y38050D02*
D03*
Y-21950D02*
D03*
D60*
X-22300Y0D02*
D03*
X-8000Y16000D02*
D03*
X-30300D02*
D03*
X-156100Y0D02*
D03*
X-133800D02*
D03*
X-111500D02*
D03*
X-89200D02*
D03*
X-66900D02*
D03*
X-44600D02*
D03*
X0D02*
D03*
X-164100Y16000D02*
D03*
X-141800D02*
D03*
X-119500D02*
D03*
X-97200D02*
D03*
X-74900D02*
D03*
X-52600D02*
D03*
D61*
X-22300Y-40000D02*
D03*
Y-70000D02*
D03*
X-8000Y56000D02*
D03*
Y86000D02*
D03*
X-30300Y56000D02*
D03*
Y86000D02*
D03*
X-156100Y-40000D02*
D03*
Y-70000D02*
D03*
X-133800Y-40000D02*
D03*
Y-70000D02*
D03*
X-111500Y-40000D02*
D03*
Y-70000D02*
D03*
X-89200Y-40000D02*
D03*
Y-70000D02*
D03*
X-66900Y-40000D02*
D03*
Y-70000D02*
D03*
X-44600Y-40000D02*
D03*
Y-70000D02*
D03*
X0Y-40000D02*
D03*
Y-70000D02*
D03*
X-164100Y56000D02*
D03*
Y86000D02*
D03*
X-141800Y56000D02*
D03*
Y86000D02*
D03*
X-119500Y56000D02*
D03*
Y86000D02*
D03*
X-97200Y56000D02*
D03*
Y86000D02*
D03*
X-74900Y56000D02*
D03*
Y86000D02*
D03*
X-52600Y56000D02*
D03*
Y86000D02*
D03*
D62*
X-275900Y-86900D02*
D03*
X-800Y35800D02*
D03*
X-21500Y48700D02*
D03*
X-43800D02*
D03*
X-66100D02*
D03*
X-88400D02*
D03*
X-110700D02*
D03*
X-133000D02*
D03*
X-155300D02*
D03*
X-143600Y-34100D02*
D03*
X-121300D02*
D03*
X-99000D02*
D03*
X-76700D02*
D03*
X-54400D02*
D03*
X-32100D02*
D03*
X-9800D02*
D03*
X12500D02*
D03*
X-265900Y77800D02*
D03*
X-306200Y76500D02*
D03*
X-305600Y-58000D02*
D03*
X-313100Y-68000D02*
D03*
X-204500Y-71800D02*
D03*
X-182500Y-4600D02*
D03*
X-313500Y53700D02*
D03*
X-292000Y15500D02*
D03*
X-300500Y55200D02*
D03*
X-303800Y100300D02*
D03*
X-321700Y6600D02*
D03*
X-326300Y-5700D02*
D03*
X-389700Y117000D02*
D03*
M02*
